{"glyphs":{"0":{"ha":943,"x_min":0,"x_max":0,"o":"m 97 486 b 596 993 138 778 325 993 b 938 486 876 993 974 765 b 439 -21 899 194 718 -21 b 97 486 168 -19 63 210 m 385 486 b 467 238 374 378 371 240 b 650 486 565 233 633 364 b 568 736 661 594 664 732 b 385 486 469 739 401 610 "},"1":{"ha":733,"x_min":0,"x_max":0,"o":"m 194 893 l 749 996 l 578 0 l 290 0 l 408 692 l 149 636 "},"2":{"ha":956,"x_min":0,"x_max":0,"o":"m 468 424 b 643 647 547 500 631 561 b 567 738 649 693 628 736 b 431 597 493 740 446 665 l 136 599 b 603 994 172 813 339 996 b 956 668 822 994 982 849 b 779 413 942 560 868 478 l 589 279 l 931 278 l 888 0 l -3 0 "},"3":{"ha":897,"x_min":0,"x_max":0,"o":"m 436 -28 b 79 340 196 -26 64 144 l 371 340 b 471 210 367 260 401 213 b 601 300 532 207 592 236 b 429 410 618 376 538 407 l 449 554 l 449 553 l 453 589 b 638 697 532 593 631 629 b 567 757 640 733 614 756 b 449 661 506 758 464 713 l 174 663 b 590 993 207 853 368 993 b 933 717 796 994 958 890 b 738 507 917 607 840 543 b 890 271 840 467 907 393 b 436 -28 864 81 672 -29 "},"4":{"ha":1035,"x_min":0,"x_max":0,"o":"m 699 972 l 951 972 l 856 417 l 1004 417 l 960 160 l 811 160 l 785 0 l 469 0 l 496 160 l -3 161 m 572 369 l 607 572 l 417 369 "},"5":{"ha":935,"x_min":0,"x_max":0,"o":"m 907 306 b 451 -21 879 82 649 -19 b 53 60 296 -21 167 14 l 172 328 b 399 257 254 281 335 258 b 583 349 485 257 572 274 b 439 431 594 421 501 429 b 146 386 356 432 244 417 l 368 972 l 981 972 l 939 708 l 550 710 l 475 585 b 656 618 531 608 592 618 b 907 306 814 615 928 486 "},"6":{"ha":978,"x_min":0,"x_max":0,"o":"m 960 965 l 614 661 b 685 671 635 667 658 671 b 944 354 839 671 964 533 b 469 -28 915 108 703 -28 b 96 354 240 -28 65 111 b 281 667 114 478 194 576 l 571 965 m 394 354 b 496 231 383 285 425 232 b 647 356 568 229 636 283 b 546 482 657 424 617 481 b 394 354 472 483 406 426 "},"7":{"ha":875,"x_min":0,"x_max":0,"o":"m 165 972 l 1008 972 l 399 0 l 67 0 l 521 688 l 119 688 "},"8":{"ha":911,"x_min":0,"x_max":0,"o":"m 72 265 b 300 518 90 394 188 476 b 188 739 225 563 174 636 b 581 1000 214 917 397 1000 b 900 738 754 1000 926 917 b 713 510 885 628 807 553 b 854 264 803 464 869 385 b 422 -28 826 71 615 -28 b 72 265 238 -28 46 72 m 463 708 b 519 626 457 668 475 626 b 617 711 572 626 610 668 b 558 792 622 753 603 792 b 463 708 506 792 469 753 m 382 311 b 450 217 374 260 397 217 b 563 314 511 217 554 258 b 492 403 568 358 543 403 b 382 311 432 403 390 358 "},"9":{"ha":978,"x_min":0,"x_max":0,"o":"m 122 8 l 467 311 b 397 303 446 306 422 303 b 138 618 243 303 118 439 b 613 1000 167 864 378 1000 b 985 618 840 1000 1017 861 b 801 306 968 494 888 396 l 511 8 m 688 619 b 586 743 697 688 657 742 b 435 618 513 744 446 689 b 536 492 425 550 465 493 b 688 619 608 490 676 547 "}," ":{"ha":417,"x_min":0,"x_max":0,"o":""},"!":{"ha":499,"x_min":0,"x_max":0,"o":"m 542 972 l 382 347 l 160 347 l 215 972 m 68 104 b 232 250 68 192 135 250 b 396 104 329 250 396 192 b 232 -42 396 17 329 -42 b 68 104 135 -42 68 17 "},"'":{"ha":431,"x_min":0,"x_max":0,"o":"m 522 972 l 296 515 l 119 514 l 244 972 "},"\"":{"ha":740,"x_min":0,"x_max":0,"o":"m 522 972 l 296 515 l 119 514 l 244 972 m 832 972 l 606 515 l 429 514 l 556 972 "},"#":{"ha":950,"x_min":0,"x_max":0,"o":"m 82 431 l 207 431 l 256 549 l 160 550 l 193 764 l 343 764 l 428 972 l 660 972 l 574 764 l 692 764 l 776 972 l 1010 972 l 925 764 l 999 764 l 961 549 l 838 549 l 789 431 l 889 431 l 850 215 l 701 215 l 614 0 l 382 0 l 469 215 l 350 215 l 263 0 l 32 0 l 119 215 l 43 215 m 565 417 l 625 563 l 478 563 l 418 417 "},"$":{"ha":871,"x_min":0,"x_max":0,"o":"m 696 660 b 568 776 665 725 626 776 b 476 713 522 776 485 744 b 665 589 460 639 583 621 b 865 278 804 535 885 426 b 532 -6 843 113 704 19 l 515 -156 l 306 -156 l 338 -6 b 36 222 200 21 85 111 l 254 369 b 449 221 306 279 356 219 b 550 281 501 221 543 238 b 394 390 561 338 472 358 b 169 708 283 439 150 540 b 489 979 190 849 325 951 l 506 1136 l 718 1136 l 685 976 b 931 782 806 950 878 878 l 696 660 "},"%":{"ha":1375,"x_min":0,"x_max":0,"o":"m 106 731 b 426 1007 126 881 269 1007 b 671 729 582 1007 690 875 b 349 453 650 579 506 453 b 106 731 193 453 85 583 m 1360 972 l 397 0 l 108 0 l 1069 972 m 318 728 b 379 663 315 696 338 663 b 457 732 415 663 453 697 b 397 797 460 763 438 797 b 318 728 361 797 322 761 m 797 246 b 1119 522 818 396 961 522 b 1363 244 1275 522 1382 390 b 1040 -32 1342 94 1199 -32 b 797 246 885 -32 778 99 m 1011 243 b 1068 178 1007 211 1033 178 b 1149 247 1104 178 1142 206 b 1093 313 1153 278 1126 313 b 1011 243 1057 313 1018 283 "},"&":{"ha":1076,"x_min":0,"x_max":0,"o":"m 693 63 b 379 -21 599 11 493 -21 b 69 265 196 -19 44 86 b 338 533 88 417 215 486 b 267 746 289 600 257 665 b 628 1001 288 883 442 1001 b 899 756 799 1001 917 889 b 653 485 882 622 779 561 l 751 357 b 869 494 796 400 836 447 l 1025 353 b 878 194 983 299 935 244 l 1029 0 l 740 0 m 514 724 b 549 617 508 688 524 654 b 661 726 607 646 656 683 b 597 792 663 754 642 792 b 514 724 550 792 521 760 m 439 203 b 569 226 483 200 526 208 l 446 389 b 350 290 397 367 357 339 b 439 203 342 242 374 206 "},"(":{"ha":485,"x_min":0,"x_max":0,"o":"m 622 1082 b 364 403 503 872 403 644 b 415 -278 329 175 349 -60 l 181 -278 b 111 403 101 -60 78 174 b 379 1083 147 646 244 878 "},")":{"ha":485,"x_min":0,"x_max":0,"o":"m -60 -276 b 199 403 60 -65 160 163 b 147 1085 233 631 214 865 l 382 1085 b 451 403 461 867 485 632 b 182 -276 415 161 318 -71 "},"*":{"ha":797,"x_min":0,"x_max":0,"o":"m 124 400 l 326 571 l 94 606 l 206 840 l 406 721 l 401 972 l 654 972 l 568 729 l 796 842 l 835 603 l 583 567 l 735 390 l 513 243 l 444 471 l 303 247 "},"+":{"ha":957,"x_min":0,"x_max":0,"o":"m 136 514 l 392 514 l 439 785 l 713 785 l 665 514 l 922 514 l 878 257 l 622 257 l 575 -14 l 301 -14 l 347 257 l 92 257 "},",":{"ha":449,"x_min":0,"x_max":0,"o":"m 388 103 l 147 -240 l -57 -204 l 124 151 "},"-":{"ha":310,"x_min":0,"x_max":0,"o":"m 43 444 l 344 444 l 304 215 l 3 215 "},".":{"ha":453,"x_min":0,"x_max":0,"o":"m 53 118 b 217 278 53 206 119 278 b 381 118 314 278 381 206 b 217 -42 381 31 314 -42 b 53 118 119 -42 53 31 "},"/":{"ha":896,"x_min":0,"x_max":0,"o":"m 1011 972 l 215 -207 l -58 -207 l 750 972 "},":":{"ha":453,"x_min":0,"x_max":0,"o":"m 133 632 b 297 792 133 719 200 792 b 461 632 394 792 461 719 b 297 472 461 544 394 472 b 133 632 200 472 133 544 m 46 118 b 210 278 46 206 113 278 b 374 118 307 278 374 206 b 210 -42 374 31 307 -42 b 46 118 113 -42 46 31 "},";":{"ha":581,"x_min":0,"x_max":0,"o":"m 218 618 b 382 778 218 706 285 778 b 546 618 479 778 546 706 b 382 458 546 531 479 458 b 218 618 285 458 218 531 m 433 103 l 194 -240 l -10 -204 l 171 151 "},"<":{"ha":863,"x_min":0,"x_max":0,"o":"m 782 243 l 738 -11 l 96 282 l 129 468 l 872 761 l 822 488 l 472 371 "},"=":{"ha":853,"x_min":0,"x_max":0,"o":"m 136 632 l 860 632 l 819 403 l 96 403 m 79 299 l 803 299 l 763 69 l 39 69 "},">":{"ha":863,"x_min":0,"x_max":0,"o":"m 133 500 l 176 756 l 818 461 l 786 275 l 43 -18 l 92 256 l 443 374 "},"?":{"ha":901,"x_min":0,"x_max":0,"o":"m 651 696 b 550 785 660 753 618 783 b 304 661 461 788 368 732 l 154 818 b 586 1007 278 931 419 1008 b 918 694 768 1007 946 892 b 581 392 893 521 732 432 l 560 306 l 336 306 l 350 556 l 396 556 b 651 696 525 558 635 619 m 243 99 b 403 236 243 175 313 236 b 564 99 494 236 564 176 b 403 -40 564 22 494 -40 b 243 99 313 -40 243 21 "},"@":{"ha":1038,"x_min":0,"x_max":0,"o":"m 50 444 b 686 1014 96 753 363 1014 b 1082 542 971 1014 1117 775 b 760 194 1057 338 926 192 b 614 311 676 196 625 244 b 447 210 571 250 513 210 b 304 432 325 208 290 315 b 550 736 321 589 424 739 b 657 671 597 736 633 710 l 669 722 l 860 722 l 790 443 b 782 406 788 432 785 418 b 794 357 779 385 778 361 b 896 543 836 342 890 446 b 675 847 921 697 865 847 b 236 444 442 847 274 667 b 494 119 204 261 278 121 b 743 174 586 118 665 146 l 775 19 b 454 -49 683 -24 575 -49 b 50 444 151 -46 10 181 m 504 444 b 519 369 501 413 500 375 b 610 501 557 358 604 456 b 596 576 613 536 618 571 b 504 444 554 588 510 490 "}}}
